<svg xmlns="http://www.w3.org/2000/svg" viewBox="0 0 1000 800" width="1000" height="800">
  <defs>
    <linearGradient id="coreGrad" x1="0%" y1="0%" x2="100%" y2="100%">
      <stop offset="0%" style="stop-color:#e3f2fd;stop-opacity:1" />
      <stop offset="100%" style="stop-color:#bbdefb;stop-opacity:1" />
    </linearGradient>
    <linearGradient id="detailGrad" x1="0%" y1="0%" x2="100%" y2="100%">
      <stop offset="0%" style="stop-color:#f3e5f5;stop-opacity:1" />
      <stop offset="100%" style="stop-color:#e1bee7;stop-opacity:1" />
    </linearGradient>
    <filter id="shadow" x="-20%" y="-20%" width="140%" height="140%">
      <feDropShadow dx="2" dy="2" stdDeviation="3" flood-opacity="0.3"/>
    </filter>
  </defs>
  <!-- Background -->
  <rect width="100%" height="100%" fill="#fafafa"/>
  
  <!-- Title -->
  <text x="500" y="40" text-anchor="middle" font-size="24" font-weight="bold" fill="#1565c0">Rust所有权系统概念架构</text>
  
  <!-- Core Layer: Ownership -->
  <rect x="100" y="80" width="200" height="80" rx="10" fill="url(#coreGrad)" stroke="#1565c0" stroke-width="3" filter="url(#shadow)"/>
  <text x="200" y="115" text-anchor="middle" font-size="16" font-weight="bold" fill="#0d47a1">所有权</text>
  <text x="200" y="140" text-anchor="middle" font-size="12" fill="#424242">Ownership</text>
  
  <!-- Core Layer: Borrowing -->
  <rect x="400" y="80" width="200" height="80" rx="10" fill="url(#coreGrad)" stroke="#1565c0" stroke-width="3" filter="url(#shadow)"/>
  <text x="500" y="115" text-anchor="middle" font-size="16" font-weight="bold" fill="#0d47a1">借用</text>
  <text x="500" y="140" text-anchor="middle" font-size="12" fill="#424242">Borrowing</text>
  
  <!-- Core Layer: Lifetime -->
  <rect x="700" y="80" width="200" height="80" rx="10" fill="url(#coreGrad)" stroke="#1565c0" stroke-width="3" filter="url(#shadow)"/>
  <text x="800" y="115" text-anchor="middle" font-size="16" font-weight="bold" fill="#0d47a1">生命周期</text>
  <text x="800" y="140" text-anchor="middle" font-size="12" fill="#424242">Lifetime</text>
  
  <!-- Ownership Details -->
  <rect x="50" y="220" width="120" height="60" rx="8" fill="url(#detailGrad)" stroke="#7b1fa2" stroke-width="2" filter="url(#shadow)"/>
  <text x="110" y="245" text-anchor="middle" font-size="13" font-weight="bold" fill="#4a148c">唯一性</text>
  <text x="110" y="265" text-anchor="middle" font-size="11" fill="#6a1b9a">Uniqueness</text>
  
  <rect x="190" y="220" width="120" height="60" rx="8" fill="url(#detailGrad)" stroke="#7b1fa2" stroke-width="2" filter="url(#shadow)"/>
  <text x="250" y="245" text-anchor="middle" font-size="13" font-weight="bold" fill="#4a148c">转移语义</text>
  <text x="250" y="265" text-anchor="middle" font-size="11" fill="#6a1b9a">Move Semantics</text>
  
  <rect x="50" y="300" width="120" height="60" rx="8" fill="#fff3e0" stroke="#ef6c00" stroke-width="2" filter="url(#shadow)"/>
  <text x="110" y="325" text-anchor="middle" font-size="13" font-weight="bold" fill="#e65100">Drop Trait</text>
  <text x="110" y="345" text-anchor="middle" font-size="11" fill="#f57c00">析构函数</text>
  
  <rect x="190" y="300" width="120" height="60" rx="8" fill="#fff3e0" stroke="#ef6c00" stroke-width="2" filter="url(#shadow)"/>
  <text x="250" y="325" text-anchor="middle" font-size="13" font-weight="bold" fill="#e65100">Copy Trait</text>
  <text x="250" y="345" text-anchor="middle" font-size="11" fill="#f57c00">复制语义</text>
  
  <!-- Borrowing Details -->
  <rect x="350" y="220" width="120" height="60" rx="8" fill="url(#detailGrad)" stroke="#7b1fa2" stroke-width="2" filter="url(#shadow)"/>
  <text x="410" y="245" text-anchor="middle" font-size="13" font-weight="bold" fill="#4a148c">共享借用</text>
  <text x="410" y="265" text-anchor="middle" font-size="11" fill="#6a1b9a">&amp;T (只读)</text>
  
  <rect x="490" y="220" width="120" height="60" rx="8" fill="url(#detailGrad)" stroke="#7b1fa2" stroke-width="2" filter="url(#shadow)"/>
  <text x="550" y="245" text-anchor="middle" font-size="13" font-weight="bold" fill="#4a148c">可变借用</text>
  <text x="550" y="265" text-anchor="middle" font-size="11" fill="#6a1b9a">&amp;mut T</text>
  
  <rect x="420" y="300" width="120" height="60" rx="8" fill="#e8f5e9" stroke="#388e3c" stroke-width="2" filter="url(#shadow)"/>
  <text x="480" y="325" text-anchor="middle" font-size="13" font-weight="bold" fill="#1b5e20">借用规则</text>
  <text x="480" y="345" text-anchor="middle" font-size="11" fill="#2e7d32">互斥/共存</text>
  
  <!-- Lifetime Details -->
  <rect x="650" y="220" width="120" height="60" rx="8" fill="url(#detailGrad)" stroke="#7b1fa2" stroke-width="2" filter="url(#shadow)"/>
  <text x="710" y="245" text-anchor="middle" font-size="13" font-weight="bold" fill="#4a148c">词法作用域</text>
  <text x="710" y="265" text-anchor="middle" font-size="11" fill="#6a1b9a">Lexical Scope</text>
  
  <rect x="790" y="220" width="120" height="60" rx="8" fill="url(#detailGrad)" stroke="#7b1fa2" stroke-width="2" filter="url(#shadow)"/>
  <text x="850" y="245" text-anchor="middle" font-size="13" font-weight="bold" fill="#4a148c">非词法NLL</text>
  <text x="850" y="265" text-anchor="middle" font-size="11" fill="#6a1b9a">数据流分析</text>
  
  <rect x="650" y="300" width="120" height="60" rx="8" fill="#fce4ec" stroke="#c2185b" stroke-width="2" filter="url(#shadow)"/>
  <text x="710" y="325" text-anchor="middle" font-size="13" font-weight="bold" fill="#880e4f">'a: 'b</text>
  <text x="710" y="345" text-anchor="middle" font-size="11" fill="#ad1457">子类型关系</text>
  
  <rect x="790" y="300" width="120" height="60" rx="8" fill="#fce4ec" stroke="#c2185b" stroke-width="2" filter="url(#shadow)"/>
  <text x="850" y="325" text-anchor="middle" font-size="13" font-weight="bold" fill="#880e4f">省略规则</text>
  <text x="850" y="345" text-anchor="middle" font-size="11" fill="#ad1457">Elision</text>
  
  <!-- Type System Layer -->
  <rect x="200" y="420" width="180" height="70" rx="10" fill="#e1f5fe" stroke="#0277bd" stroke-width="2" filter="url(#shadow)"/>
  <text x="290" y="450" text-anchor="middle" font-size="15" font-weight="bold" fill="#01579b">类型系统</text>
  <text x="290" y="475" text-anchor="middle" font-size="11" fill="#0288d1">仿射类型 / 区域类型</text>
  
  <!-- Verification Layer -->
  <rect x="620" y="420" width="180" height="70" rx="10" fill="#f3e5f5" stroke="#7b1fa2" stroke-width="2" filter="url(#shadow)"/>
  <text x="710" y="450" text-anchor="middle" font-size="15" font-weight="bold" fill="#4a148c">验证层次</text>
  <text x="710" y="475" text-anchor="middle" font-size="11" fill="#7b1fa2">静态 / 动态 / 形式化</text>
  
  <!-- Type System Details -->
  <rect x="50" y="530" width="110" height="50" rx="8" fill="#fff8e1" stroke="#ffa000" stroke-width="2"/>
  <text x="105" y="555" text-anchor="middle" font-size="12" font-weight="bold" fill="#e65100">仿射类型</text>
  <text x="105" y="570" text-anchor="middle" font-size="10" fill="#f57c00">Affine Types</text>
  
  <rect x="180" y="530" width="110" height="50" rx="8" fill="#fff8e1" stroke="#ffa000" stroke-width="2"/>
  <text x="235" y="555" text-anchor="middle" font-size="12" font-weight="bold" fill="#e65100">线性类型</text>
  <text x="235" y="570" text-anchor="middle" font-size="10" fill="#f57c00">Linear Types</text>
  
  <rect x="310" y="530" width="110" height="50" rx="8" fill="#fff8e1" stroke="#ffa000" stroke-width="2"/>
  <text x="365" y="555" text-anchor="middle" font-size="12" font-weight="bold" fill="#e65100">区域类型</text>
  <text x="365" y="570" text-anchor="middle" font-size="10" fill="#f57c00">Region Types</text>
  
  <!-- Verification Details -->
  <rect x="540" y="530" width="110" height="50" rx="8" fill="#e8f5e9" stroke="#388e3c" stroke-width="2"/>
  <text x="595" y="555" text-anchor="middle" font-size="12" font-weight="bold" fill="#1b5e20">静态检查</text>
  <text x="595" y="570" text-anchor="middle" font-size="10" fill="#2e7d32">编译期</text>
  
  <rect x="670" y="530" width="110" height="50" rx="8" fill="#e8f5e9" stroke="#388e3c" stroke-width="2"/>
  <text x="725" y="555" text-anchor="middle" font-size="12" font-weight="bold" fill="#1b5e20">动态检查</text>
  <text x="725" y="570" text-anchor="middle" font-size="10" fill="#2e7d32">运行时</text>
  
  <rect x="800" y="530" width="110" height="50" rx="8" fill="#e8f5e9" stroke="#388e3c" stroke-width="2"/>
  <text x="855" y="555" text-anchor="middle" font-size="12" font-weight="bold" fill="#1b5e20">形式化验证</text>
  <text x="855" y="570" text-anchor="middle" font-size="10" fill="#2e7d32">数学证明</text>
  
  <!-- Connections -->
  <!-- Ownership connections -->
  <line x1="200" y1="160" x2="110" y2="220" stroke="#666" stroke-width="1.5" stroke-dasharray="5,5"/>
  <line x1="200" y1="160" x2="250" y2="220" stroke="#666" stroke-width="1.5" stroke-dasharray="5,5"/>
  <line x1="110" y1="280" x2="110" y2="300" stroke="#666" stroke-width="1"/>
  <line x1="250" y1="280" x2="250" y2="300" stroke="#666" stroke-width="1"/>
  
  <!-- Borrowing connections -->
  <line x1="500" y1="160" x2="410" y2="220" stroke="#666" stroke-width="1.5" stroke-dasharray="5,5"/>
  <line x1="500" y1="160" x2="550" y2="220" stroke="#666" stroke-width="1.5" stroke-dasharray="5,5"/>
  <line x1="480" y1="280" x2="480" y2="300" stroke="#666" stroke-width="1"/>
  
  <!-- Lifetime connections -->
  <line x1="800" y1="160" x2="710" y2="220" stroke="#666" stroke-width="1.5" stroke-dasharray="5,5"/>
  <line x1="800" y1="160" x2="850" y2="220" stroke="#666" stroke-width="1.5" stroke-dasharray="5,5"/>
  <line x1="710" y1="280" x2="710" y2="300" stroke="#666" stroke-width="1"/>
  <line x1="850" y1="280" x2="850" y2="300" stroke="#666" stroke-width="1"/>
  
  <!-- Cross layer connections -->
  <line x1="200" y1="380" x2="290" y2="420" stroke="#1565c0" stroke-width="2"/>
  <line x1="500" y1="380" x2="290" y2="420" stroke="#1565c0" stroke-width="2"/>
  <line x1="800" y1="380" x2="710" y2="420" stroke="#7b1fa2" stroke-width="2"/>
  
  <!-- Type to verification -->
  <line x1="380" y1="455" x2="620" y2="455" stroke="#666" stroke-width="1.5" stroke-dasharray="3,3"/>
  
  <!-- Legend -->
  <rect x="50" y="650" width="900" height="130" rx="10" fill="white" stroke="#ddd" stroke-width="1"/>
  <text x="500" y="675" text-anchor="middle" font-size="14" font-weight="bold" fill="#333">图例说明</text>
  
  <rect x="80" y="695" width="20" height="15" fill="url(#coreGrad)" stroke="#1565c0"/>
  <text x="110" y="707" font-size="12" fill="#333">核心概念层</text>
  
  <rect x="220" y="695" width="20" height="15" fill="url(#detailGrad)" stroke="#7b1fa2"/>
  <text x="250" y="707" font-size="12" fill="#333">详细分解</text>
  
  <rect x="340" y="695" width="20" height="15" fill="#fff3e0" stroke="#ef6c00"/>
  <text x="370" y="707" font-size="12" fill="#333">Trait/语义</text>
  
  <rect x="460" y="695" width="20" height="15" fill="#e8f5e9" stroke="#388e3c"/>
  <text x="490" y="707" font-size="12" fill="#333">规则/机制</text>
  
  <rect x="580" y="695" width="20" height="15" fill="#fce4ec" stroke="#c2185b"/>
  <text x="610" y="707" font-size="12" fill="#333">生命周期</text>
  
  <line x1="720" y1="702" x2="760" y2="702" stroke="#666" stroke-width="1.5" stroke-dasharray="5,5"/>
  <text x="770" y="707" font-size="12" fill="#333">概念关联</text>
  
  <text x="500" y="745" text-anchor="middle" font-size="11" fill="#666">虚线表示概念间的关联关系，实线表示层次间的依赖关系</text>
  <text x="500" y="765" text-anchor="middle" font-size="11" fill="#666">所有权 → 借用 → 生命周期 构成Rust内存安全的三层保障</text>
</svg>
